<?xml version="1.0" encoding="utf-8"?>
<!DOCTYPE svg PUBLIC "-//W3C//DTD SVG 1.0//EN" "http://www.w3.org/TR/2001/REC-SVG-20010904/DTD/svg10.dtd">
<svg version="1.0" xmlns="http://www.w3.org/2000/svg" width="512px" height="512px" viewBox="0 0 512 512" preserveAspectRatio="xMidYMid meet">
 <g fill="#212121">
  <path d="M173.3 447 c-1.8 -0.4 -4.4 -1.5 -5.8 -2.4 -1.3 -0.9 -33.8 -40 -72.2 -86.9 -38.3 -46.8 -71.4 -87.3 -73.6 -89.9 -4.1 -4.9 -5.5 -10 -4.3 -16 0.9 -4.4 146.4 -182.2 151.6 -185.3 3.4 -1.9 5 -2 63 -2 58.2 0 59.6 0 63 2.1 7.6 4.4 10.3 14 6.1 21 -1 1.7 -32.3 40.3 -69.5 85.8 l-67.7 82.6 67.7 82.6 c37.2 45.5 68.5 84.1 69.5 85.8 4.2 7 1.5 16.6 -6.1 21 -3.4 2 -5 2.1 -61 2.3 -31.6 0.1 -59 -0.2 -60.7 -0.7z m71.5 -35.7 c-4.3 -5 -113.8 -139.4 -116.3 -142.6 -3.1 -4.2 -4.4 -12.1 -3.1 -19.2 0.6 -2.8 13.4 -19.1 57.3 -72.8 31.1 -38 58.2 -71.1 60.1 -73.4 l3.4 -4.3 -29.8 0 -29.9 0 -64.2 78.5 -64.2 78.5 64.2 78.5 64.2 78.5 29.9 0 c28.4 0 29.8 -0.1 28.4 -1.7z"/>
  <path d="M365.3 447 c-1.8 -0.4 -4.4 -1.5 -5.8 -2.4 -1.3 -0.9 -33.8 -40 -72.2 -86.9 -38.3 -46.8 -71.4 -87.3 -73.6 -89.9 -4.1 -4.9 -5.5 -10 -4.3 -16 0.9 -4.4 146.4 -182.2 151.6 -185.3 3.4 -1.9 5 -2 63 -2 58.2 0 59.6 0 63 2.1 7.6 4.4 10.3 14 6.1 21 -1 1.7 -32.3 40.3 -69.5 85.8 l-67.7 82.6 67.7 82.6 c37.2 45.5 68.5 84.1 69.5 85.8 4.2 7 1.5 16.6 -6.1 21 -3.4 2 -5 2.1 -61 2.3 -31.6 0.1 -59 -0.2 -60.7 -0.7z m71.5 -35.7 c-4.3 -5 -113.8 -139.4 -116.3 -142.6 -3.1 -4.2 -4.4 -12.1 -3.1 -19.2 0.6 -2.8 13.4 -19.1 57.3 -72.8 31.1 -38 58.2 -71.1 60.1 -73.4 l3.4 -4.3 -29.8 0 -29.9 0 -64.2 78.5 -64.2 78.5 64.2 78.5 64.2 78.5 29.9 0 c28.4 0 29.8 -0.1 28.4 -1.7z"/>
 </g>
 <g fill="#3f98e0">
  <path d="M118.5 336.5 c-35.7 -43.7 -65.1 -79.9 -65.3 -80.3 -0.1 -0.5 1.3 -2.6 3.2 -4.8 3.2 -3.5 3.5 -3.7 3.6 -1.6 l0 2.2 32.5 0 c31.8 0 32.5 0 32.5 -2 0 -1.5 0.7 -2 2.4 -2 2.3 0 2.4 0.2 1.4 3.1 -1.5 4.4 -0.4 10.4 2.8 14.7 2.6 3.4 117.7 144.5 121.2 148.5 1.4 1.6 -0.3 1.7 -33.9 1.7 l-35.4 0 -65 -79.5z"/>
  <path d="M310.5 336.5 c-35.7 -43.7 -65.1 -79.9 -65.3 -80.3 -0.1 -0.5 1.3 -2.6 3.2 -4.8 3.2 -3.5 3.5 -3.7 3.6 -1.6 l0 2.2 32.5 0 c31.8 0 32.5 0 32.5 -2 0 -1.5 0.7 -2 2.4 -2 2.3 0 2.4 0.2 1.4 3.1 -1.5 4.4 -0.4 10.4 2.8 14.7 2.6 3.4 117.7 144.5 121.2 148.5 1.4 1.6 -0.3 1.7 -33.9 1.7 l-35.4 0 -65 -79.5z"/>
 </g>
 <g fill="#42a5f5">
  <path d="M57.7 250.1 c2.1 -2.7 31.3 -38.5 64.8 -79.5 l61 -74.6 35.4 0 c33.6 0 35.3 0.1 33.9 1.8 -0.9 0.9 -29.1 35.4 -62.7 76.5 -39.3 48.1 -61.4 75.9 -61.8 77.8 l-0.5 2.9 -37 0 -36.9 0 3.8 -4.9z"/>
  <path d="M249.7 250.1 c2.1 -2.7 31.3 -38.5 64.8 -79.5 l61 -74.6 35.4 0 c33.6 0 35.3 0.1 33.9 1.8 -0.9 0.9 -29.1 35.4 -62.7 76.5 -39.3 48.1 -61.4 75.9 -61.8 77.8 l-0.5 2.9 -37 0 -36.9 0 3.8 -4.9z"/>
 </g>
</svg>